<svg xmlns="http://www.w3.org/2000/svg" viewBox="0 0 500 500"><g id="freepik--background-simple--inject-116"><path d="M480.32,202.24c11.61-10.92,9.19-32.5,7.17-46.65-2.62-18.3-9.53-36-21.06-50.56A71.13,71.13,0,0,0,447,88.5C405.54,63.65,356.79,52,309.09,47.43c-32.74-3.1-58-.61-87.82,13,0,0-91.75,32.5-143.26,74.26s-45.27,56-19.5,39.82c-14.19,13.51-34.77,30.94-40.35,50.66C6.32,267,53,448.64,133.7,468.82S402.36,464,447.61,408.27s34.8-165.66,13.92-208.12S468.49,213.38,480.32,202.24Z" style="fill:#92E3A9"></path><path d="M480.32,202.24c11.61-10.92,9.19-32.5,7.17-46.65-2.62-18.3-9.53-36-21.06-50.56A71.13,71.13,0,0,0,447,88.5C405.54,63.65,356.79,52,309.09,47.43c-32.74-3.1-58-.61-87.82,13,0,0-91.75,32.5-143.26,74.26s-45.27,56-19.5,39.82c-14.19,13.51-34.77,30.94-40.35,50.66C6.32,267,53,448.64,133.7,468.82S402.36,464,447.61,408.27s34.8-165.66,13.92-208.12S468.49,213.38,480.32,202.24Z" style="fill:#fff;opacity:0.7000000000000001"></path></g><g id="freepik--Floor--inject-116"><line x1="16.73" y1="442.91" x2="492.31" y2="442.91" style="fill:none;stroke:#263238;stroke-miterlimit:10"></line></g><g id="freepik--Lamps--inject-116"><polygon points="23.31 26.97 6.18 40.92 53.63 40.92 36.5 26.97 23.31 26.97" style="fill:none;stroke:#263238;stroke-miterlimit:10"></polygon><path d="M21.12,41.05a9.39,9.39,0,0,0,17.56,0Z" style="fill:none;stroke:#263238;stroke-miterlimit:10"></path><polygon points="242.15 26.97 225.02 40.92 272.46 40.92 255.33 26.97 242.15 26.97" style="fill:none;stroke:#263238;stroke-miterlimit:10"></polygon><path d="M240,41.05a9.39,9.39,0,0,0,17.56,0Z" style="fill:none;stroke:#263238;stroke-miterlimit:10"></path><polygon points="460.99 26.97 443.86 40.92 491.3 40.92 474.17 26.97 460.99 26.97" style="fill:none;stroke:#263238;stroke-miterlimit:10"></polygon><path d="M458.8,41.05a9.39,9.39,0,0,0,17.56,0Z" style="fill:none;stroke:#263238;stroke-miterlimit:10"></path></g><g id="freepik--Mirrors--inject-116"><rect x="53.04" y="68.94" width="148" height="190.65" style="fill:none;stroke:#263238;stroke-miterlimit:10"></rect><rect x="57.87" y="75.17" width="138.32" height="178.19" style="fill:none;stroke:#263238;stroke-miterlimit:10"></rect><line x1="137.78" y1="76.76" x2="61.23" y2="153.31" style="fill:none;stroke:#263238;stroke-miterlimit:10"></line><line x1="100.85" y1="125.11" x2="74.32" y2="151.64" style="fill:none;stroke:#263238;stroke-miterlimit:10"></line><line x1="64.59" y1="241.95" x2="95.81" y2="210.73" style="fill:none;stroke:#263238;stroke-miterlimit:10"></line><rect x="290.07" y="68.94" width="148" height="190.65" style="fill:none;stroke:#263238;stroke-miterlimit:10"></rect><rect x="294.91" y="75.17" width="138.32" height="178.19" style="fill:none;stroke:#263238;stroke-miterlimit:10"></rect><line x1="398.31" y1="78.78" x2="304.98" y2="172.12" style="fill:none;stroke:#263238;stroke-miterlimit:10"></line><line x1="357.35" y1="139.21" x2="335.53" y2="161.04" style="fill:none;stroke:#263238;stroke-miterlimit:10"></line></g><g id="freepik--Table--inject-116"><line x1="12.21" y1="263.21" x2="490.98" y2="263.21" style="fill:none;stroke:#263238;stroke-miterlimit:10"></line><line x1="12.21" y1="272.33" x2="490.98" y2="272.33" style="fill:none;stroke:#263238;stroke-miterlimit:10"></line><rect x="22.67" y="272.43" width="71.08" height="27.34" style="fill:none;stroke:#263238;stroke-miterlimit:10"></rect><rect x="46.85" y="283.79" width="22.72" height="4.62" style="fill:none;stroke:#263238;stroke-miterlimit:10"></rect><rect x="214.21" y="272.43" width="71.08" height="27.34" style="fill:none;stroke:#263238;stroke-miterlimit:10"></rect><rect x="238.39" y="283.79" width="22.72" height="4.62" style="fill:none;stroke:#263238;stroke-miterlimit:10"></rect><rect x="405.76" y="272.43" width="71.08" height="27.34" style="fill:none;stroke:#263238;stroke-miterlimit:10"></rect><rect x="429.94" y="283.79" width="22.72" height="4.62" style="fill:none;stroke:#263238;stroke-miterlimit:10"></rect></g><g id="freepik--character-1--inject-116"><path d="M152.27,271.66s2.71-.2,2.9,1.74-3.48,5-5.61,4.26S152.27,271.66,152.27,271.66Z" style="fill:#fff;stroke:#263238;stroke-miterlimit:10"></path><path d="M151.51,266.91s2.8-.2,3,1.8-3.6,5.2-5.8,4.4S151.51,266.91,151.51,266.91Z" style="fill:#fff;stroke:#263238;stroke-miterlimit:10"></path><path d="M149.44,263.71s2.8-.2,3,1.8-3.6,5.2-5.8,4.4S149.44,263.71,149.44,263.71Z" style="fill:#fff;stroke:#263238;stroke-miterlimit:10"></path><path d="M153.47,276.39s1.47,1.34,1.14,2.2-4,3.28-4.74,3.21-.8-1.2-.27-1.87,1.74-2.2,1.74-2.2Z" style="fill:#fff;stroke:#263238;stroke-miterlimit:10"></path><path d="M93.5,273.75s-8.19,15.79-6.79,32,11,52.57,11,57.77-1,17.19-1,17.19a51.58,51.58,0,0,0-1.54,17.91c.8,10.6,6.93,27.93,7.33,28.53s-2.19,9.14-1.79,9.74,1.2,6.39,1.2,6.39l.4,2.4,12.59-1s.81-6.25,1.21-7.85a11.57,11.57,0,0,0,.4-6,43.2,43.2,0,0,1-.93-6.82c-.4-3.6,2.52-52.89,2.52-52.89l5.4-55.58s11.19,23.39,15.19,34.79a163.65,163.65,0,0,0,9.6,21.59,86.32,86.32,0,0,0-.44,19.14c1,10.62,1.28,26.88,2.08,29.88s.2,13.28.2,13.28-7.8,10.4-7.6,11.6,8.6,6.79,11.6,8.59,12.39,8,18.39,8.2,3.2-4,2.2-4.8a107.51,107.51,0,0,1-7.8-9.2c-1.6-2.19-5.79-13-5.79-16s8.16-34.82,8.81-54.3a51.49,51.49,0,0,0-1.66-14.4s-2.4-23-7.4-41.38-10.39-26.59-10.39-26.59l-3.6-12.39v-9.2L96.3,267Z" style="fill:#263238;stroke:#263238;stroke-miterlimit:10"></path><path d="M108.71,198.48s-10.45,16.05-11.36,21.28,2,29.93,1.81,32.28-7.4,24.7-7.4,24.7,20.2,9.73,31.92,11.18,17.13,1.26,17.13,1.26l2.16-9,1.81,8.48,8.29-3.61s-2.89-13-2.52-15.87,2.7-19.11,2.88-23.07,2-17.86.18-23.08-9.74-21.82-10.28-22.9-9.91-7.76-13-9.56S114.12,188.75,108.71,198.48Z" style="fill:#92E3A9;stroke:#263238;stroke-miterlimit:10"></path><path d="M127.1,201.91s0,1.62,5.77,7,14.25,9.56,14.25,9.56l-6.49-18.21-13.53-4.15Z" style="fill:#fff;stroke:#263238;stroke-miterlimit:10"></path><polygon points="139.19 206.6 140.63 200.29 140.45 193.07 133.6 190.55 139.19 206.6" style="fill:#fff;stroke:#263238;stroke-miterlimit:10"></polygon><polygon points="140.45 193.07 146.04 202.63 140.63 200.29 140.45 193.07" style="fill:#fff;stroke:#263238;stroke-miterlimit:10"></polygon><path d="M136.12,186.22s1.08,9.38,1.08,10.64,2,9.74,2,9.74l-4.51-3.79-1.26-5.05-11.72-7.57-1.81-17.85Z" style="fill:#fff;stroke:#263238;stroke-miterlimit:10"></path><polygon points="133.42 197.76 130.89 205.7 115.93 195.42 121.7 190.19 133.42 197.76" style="fill:#fff;stroke:#263238;stroke-miterlimit:10"></polygon><path d="M146.64,146.22s6,4.84,6.61,7.34-6.31,6.9-6.31,6.9l-5.58-10.87Z" style="fill:#263238;stroke:#263238;stroke-miterlimit:10"></path><path d="M145.62,147.83a60.53,60.53,0,0,1,2.49,11.89c.3,5,1.76,7.34,1.91,11.45a23.38,23.38,0,0,1-4.26,12.92c-2.35,3.08-5.28,4.7-8.51,4.55s-11.89-6.16-13.07-7.48-4.25-5.73-4.25-5.73l-1.47-13.5,24.66-15.71Z" style="fill:#fff;stroke:#263238;stroke-miterlimit:10"></path><path d="M133.87,176.6a8.53,8.53,0,0,0,7.64,1.91" style="fill:none;stroke:#263238;stroke-miterlimit:10"></path><path d="M133.8,166.92c0,1.13-.56,2.05-1.25,2.05s-1.25-.92-1.25-2.05.56-2.06,1.25-2.06S133.8,165.78,133.8,166.92Z" style="fill:#263238"></path><ellipse cx="144.21" cy="164.8" rx="1.02" ry="1.68" style="fill:#263238"></ellipse><path d="M146.35,171.91a7.56,7.56,0,0,1-3.67,2.49" style="fill:none;stroke:#263238;stroke-miterlimit:10"></path><path d="M143.19,164.8s-2.12-4.93,3.45-6.54" style="fill:none;stroke:#263238;stroke-miterlimit:10"></path><path d="M136.07,161.48a7.48,7.48,0,0,0-6.89,1.33" style="fill:none;stroke:#263238;stroke-miterlimit:10"></path><path d="M121.25,165.15s23-14.67,25.1-16.14a5.56,5.56,0,0,0,2.2-5.14c-.29-.88-20.11-10.13-26-9.54s-19.67,12.33-20.26,17.76-1,16-1,16l-4.69,27.19s5,2.93,14.38,4.55a30.06,30.06,0,0,0,16-1.32,56.28,56.28,0,0,1-3.67-7.93C122.13,187,121.25,165.15,121.25,165.15Z" style="fill:#263238;stroke:#263238;stroke-miterlimit:10"></path><path d="M179.12,202.91s13.12,17.46,13.25,17.82-.25,1.2.24,1.08,5.53-5.78,5.9-6.26-.13-1.08-.85-.84-1.56.48-1.56.48l-4.94-6-5.54-11.92Z" style="fill:#263238;stroke:#263238;stroke-miterlimit:10"></path><path d="M206.27,182.42l3.21-1.64-3.63-7.09-3.21,1.65a69.44,69.44,0,0,1-24,6.86,21.63,21.63,0,0,0-7.39,2.29c-7.56,3.87-11.62,11-9.06,16s10.74,5.89,18.3,2a21.76,21.76,0,0,0,6.18-4.67A69.42,69.42,0,0,1,206.27,182.42Z" style="fill:#263238;stroke:#263238;stroke-miterlimit:10"></path><polygon points="214.2 179.36 209.78 170.73 205.85 173.69 209.5 180.82 214.2 179.36" style="fill:none;stroke:#263238;stroke-miterlimit:10"></polygon><path d="M115.45,445.8s-1.15-6.12-3.06-6.75-9,.25-9.18,1.53-1.78,5.48-2,6.37-2.93,9.05-3.56,11.34S98,463,100,463.39s17.2,0,17.2,0,1.66,0,1.28-3.06-2.93-9.94-2.93-10.71S115.45,445.8,115.45,445.8Z" style="fill:#92E3A9;stroke:#263238;stroke-miterlimit:10"></path><path d="M100,463.39c2,.38,17.2,0,17.2,0s1.56,0,1.3-2.81h-21A3.29,3.29,0,0,0,100,463.39Z" style="fill:#fff;stroke:#263238;stroke-miterlimit:10"></path><path d="M174.71,457.8a107.51,107.51,0,0,1-7.8-9.2c-1.48-2-5.17-11.41-5.72-15.18l-.88-.36s-.51-.77-1.66.51a19.32,19.32,0,0,0-2.29,3.69L150,434.44c-1.13,1.52-7.61,10.27-7.43,11.37s8.6,6.79,11.6,8.59,12.39,8,18.39,8.2S175.71,458.6,174.71,457.8Z" style="fill:#92E3A9;stroke:#263238;stroke-miterlimit:10"></path><path d="M155.21,451.92a101.69,101.69,0,0,0-11.72-8.21,5.73,5.73,0,0,0-1,2.1c.2,1.2,8.6,6.79,11.6,8.59s12.39,8,18.39,8.2c2.51.08,3.47-.61,3.67-1.49C170.56,460.29,160,456,155.21,451.92Z" style="fill:#fff;stroke:#263238;stroke-miterlimit:10"></path><path d="M142.25,236s-16.77-26.15-21.1-28.49S110,207,107.27,213.81s-.72,11.9,2,15.51,29.58,29.93,29.58,29.93,3.06-.54,4.14-1.44,43.46-40.57,43.46-40.57,8.11-3.43,9-4.33a20.92,20.92,0,0,0,2-2.53s-1.63-3.24-2.17-4.14-1.08-3.61-1.8-4.51-1.62-2.16-1.62-2.16-.18-2.35-1.45-2.17-5,3.61-5.95,4.15-5.95,3.79-5.95,5,.18,4.32.18,5.59-9.55,8.65-16.95,12.62S142.25,236,142.25,236Z" style="fill:#fff;stroke:#263238;stroke-miterlimit:10"></path><path d="M107.81,208.76s-3.6,6-3.06,12.08,12.08,21.82,12.08,21.82l18.57-20.2s-8.66-12.44-12.8-15.68S109.61,206.24,107.81,208.76Z" style="fill:#fff;stroke:#263238;stroke-miterlimit:10"></path></g><g id="freepik--Chair--inject-116"><rect x="264.07" y="373.05" width="5.66" height="16.99" style="fill:#263238;stroke:#263238;stroke-miterlimit:10"></rect><path d="M197.32,367s5.26,5.86,19.42,8.9,32-.81,32-.81-1,4-2.84,11.73-9.1,36.41-9.5,37.21-1,2.23-1,2.23l-51.17-9.51S189.84,383,197.32,367Z" style="fill:#263238;stroke:#263238;stroke-miterlimit:10"></path><path d="M192.67,292s2.43,3.23,1.82,6.67-7.28,17-6.07,19.62,3.44,5.26,3.85,7.69-2.84,27.91-3.85,30.74,2.23,3,2.63,4.45-8.29,28.72-10.31,38.84S177.5,423,177.5,423l7.28-.2s6.47-35.8,10.11-45.71,7.29-15.78,6.68-16.79-2.83-2.83-2.83-3.84,3-7.48,3.23-11.73-1.61-12.95-2-16,.81-5.66-.4-7.89S195.7,316,195.7,314s5.46-15,6.68-16.58a17.79,17.79,0,0,1,3.64-3.24Z" style="fill:#263238;stroke:#263238;stroke-miterlimit:10"></path><path d="M241.41,296s4.45,3.44,6.28,7.49,3,11.73,4,14.36,2.43,2.83,2.63,6.07-5.06,13.34-5.06,13.34l9.71.41s2.63-11.93,2.83-14.16l.21-2.22a12.07,12.07,0,0,1,6.67-4.86,32.32,32.32,0,0,1,8.9-.61L273.78,299s-7.89,6.47-12.75,7.48-7.48-1.21-7.88-4.45,2-6.27,2-6.27Z" style="fill:#263238;stroke:#263238;stroke-miterlimit:10"></path><path d="M319.69,221s-15.37,1-17,2.23-5.06,14.36-3.84,15.78,7.08,3.84,7.08,3.84-16.59,9.3-24.28,20.63-9.5,28.32-9.7,41.66S286.11,327.14,295,331s20,3,26.7,0a118.38,118.38,0,0,0,13-7.28c1.21-.6,4-2.22,6.87-9.91S349,284.67,345,269.7s-13.75-22-16-23.46a34.1,34.1,0,0,0-4-2.23s8.9.81,9.51-.6,4.24-13.76,2.42-16.39S325.35,220.35,319.69,221Z" style="fill:#92E3A9;stroke:#263238;stroke-miterlimit:10"></path><path d="M320.08,328.92a30.79,30.79,0,0,1-10.55,2.95" style="fill:none;stroke:#263238;stroke-miterlimit:10"></path><path d="M332.85,256.09a45.44,45.44,0,0,1,6.83,13.73c5.88,19.2,0,41.17-9.57,51.32a42.42,42.42,0,0,1-5.26,4.77" style="fill:none;stroke:#263238;stroke-miterlimit:10"></path><path d="M321.12,245.46a33.93,33.93,0,0,1,9.24,7.55" style="fill:none;stroke:#263238;stroke-miterlimit:10"></path><path d="M327.51,233.49c-1.6,5.64-1.91,7.31-4.18,7.49-2.63.2-19.62-.61-19.62-.61" style="fill:none;stroke:#263238;stroke-miterlimit:10"></path><path d="M325.56,223s4-.47,3.4,4.84" style="fill:none;stroke:#263238;stroke-miterlimit:10"></path><path d="M308.16,242.6s10.52-1,14.56.6" style="fill:none;stroke:#263238;stroke-miterlimit:10"></path><path d="M203.39,352.42s-.4-8.9,10.32-12.94,69.37-1.82,84.34.2,24.88,7.69,27.1,11.13.61,9.5.61,9.5l-61.29,3-56.23-7.08Z" style="fill:#92E3A9;stroke:#263238;stroke-miterlimit:10"></path><path d="M315.62,351.67c2.37-.2,4.79-.43,7.24-.67" style="fill:none;stroke:#263238;stroke-miterlimit:10"></path><path d="M208.33,346.66s30.41,10.82,101.19,5.5" style="fill:none;stroke:#263238;stroke-miterlimit:10"></path><path d="M317.47,360.11s-47.74,1-57.85.81-45.71-5.06-49.76-6.27-6.47-2.23-6.47-2.23V368s13.55,4.25,41.87,7.48,36,2.43,38.23,2.43,49.55-2.43,50.36-3,.4-15,.4-15Z" style="fill:#263238;stroke:#263238;stroke-miterlimit:10"></path><path d="M283.08,298.62s-6.88,24.07-8.7,26.09-8.9,4.66-9.1,6.68-2.43,29.12-2.43,29.12a16.7,16.7,0,0,1-2.42,4.45,16.6,16.6,0,0,1-4.05,2.43s12.14-.81,13.55-1.41,4.45-7.29,5.06-12.54-1.62-19.62-.61-22.46,6.07-4.45,7.08-7.88,7.28-21.24,7.28-21.24l3-3Z" style="fill:#263238;stroke:#263238;stroke-miterlimit:10"></path><path d="M277.42,353.74a3.95,3.95,0,1,1-3.95-3.95A3.94,3.94,0,0,1,277.42,353.74Z" style="fill:#263238;stroke:#263238;stroke-miterlimit:10"></path><path d="M327.38,299.43s6.47,10.52,7.68,15.37-4.65,12.14-6.88,14.57-5.46,14.15-4,15.57a8.08,8.08,0,0,0,3.84,1.82,11.28,11.28,0,0,1-2.42,7.48c-2.84,3.65-7.89,4.86-8.09,5.87s14.56,0,14.56,0,1.62,0,2.22-2.43.41-8.9.41-8.9-.41-4.24-.41-7.28,1.42-9.1,3-11.12,7.48-7.49,7.68-13.15-3-11.12-3.44-12.94,2.23-5.06,2.23-5.06Z" style="fill:#263238;stroke:#263238;stroke-miterlimit:10"></path><circle cx="332.94" cy="344.54" r="3.34" style="fill:#263238;stroke:#263238;stroke-miterlimit:10"></circle><polygon points="140.28 424.23 179.12 421.19 237.17 431.31 190.44 443.04 140.28 424.23" style="fill:#828282;stroke:#263238;stroke-miterlimit:10"></polygon><polygon points="229.48 432.32 190.65 434.95 190.44 443.04 236.36 440.61 237.17 431.31 229.48 432.32" style="fill:#263238;stroke:#263238;stroke-miterlimit:10"></polygon><path d="M256.38,367.39s-3,1.21-3.84,3.44l-.81,2.22s-2.83-.6-3.44.41S237.77,406.23,235.75,417s-3,15.37-3,15.37-5.67-.61-5.87.81-2,4,1,5.26,9.11,1,10.72-.41,2.83-12.74,3.44-16.18,10.52-26.9,14-35.19,6.27-14,8.49-16.18a35.37,35.37,0,0,0,3.64-4.25Z" style="fill:#263238;stroke:#263238;stroke-miterlimit:10"></path><path d="M274.59,297.61s3.43,2,6.06,2.23,63.92,2.42,64.93,1.61a4.92,4.92,0,0,0,1-5.46c-1-2.22-10.92-5.86-15.37-6.27s-47.53-1.62-52.18-.2-5.47,3-5.47,4.86A6.09,6.09,0,0,0,274.59,297.61Z" style="fill:#92E3A9;stroke:#263238;stroke-miterlimit:10"></path><path d="M280.65,299.84c2.63.2,63.92,2.42,64.93,1.61a4.85,4.85,0,0,0,1.35-4.25c-18.12-.87-58.95-2.82-61.62-2.82H273.57a6.09,6.09,0,0,0,1,3.23S278,299.63,280.65,299.84Z" style="fill:#263238;stroke:#263238;stroke-miterlimit:10"></path><path d="M199.55,285.07s-9.51.61-10.72,2-.61,6.07.4,6.48,66.14,4,68,3.43,2.43-1.41,2.43-3,0-3.24-2.63-4.65S208.65,283.25,199.55,285.07Z" style="fill:#92E3A9;stroke:#263238;stroke-miterlimit:10"></path><path d="M189.23,293.57c1,.4,66.14,4,68,3.43s2.43-1.41,2.43-3a11.43,11.43,0,0,0,0-1.17l-71.41-3.36C188.09,291.24,188.57,293.3,189.23,293.57Z" style="fill:#263238;stroke:#263238;stroke-miterlimit:10"></path><path d="M193.28,382.16s-4.86,18-5.87,22.65-.2,4.85.61,4.85,41.26,8.5,41.87,7.29,6.87-27.51,6.87-27.51S213.5,384.38,193.28,382.16Z" style="fill:#92E3A9;stroke:#263238;stroke-miterlimit:10"></path><path d="M232,394.83a43.9,43.9,0,0,0-3.95,19.09" style="fill:none;stroke:#263238;stroke-miterlimit:10"></path><path d="M233.56,391.89s-.39.6-1,1.72" style="fill:none;stroke:#263238;stroke-miterlimit:10"></path><polygon points="190.65 434.95 140.28 424.23 139.88 431.91 190.44 443.04 190.65 434.95" style="fill:#263238;stroke:#263238;stroke-miterlimit:10"></polygon><path d="M163.75,412.5s3.44,2.62,4,3.64,3.84,16.78,5.46,17.59,10.12,1.42,10.12,1.42v5.66s-10.52,0-13.15-2.63a20.22,20.22,0,0,1-5.26-8.29c-.61-2.43-2.63-10.72-2.63-10.72l-3.64-1.62Z" style="fill:#263238;stroke:#263238;stroke-miterlimit:10"></path><path d="M122.49,422.81s6.27,5.87,8.69,7.08,8.5,0,8.5,0l.2-4.25Z" style="fill:#263238;stroke:#263238;stroke-miterlimit:10"></path><path d="M172.65,395.51l3,6.06L147,428.68s-34.79-8.3-35.8-9.11-2-4.24-2-4.24Z" style="fill:#263238;stroke:#263238;stroke-miterlimit:10"></path><path d="M172.65,395.51s-24.83,26.9-27.59,28.21a6.31,6.31,0,0,1-4.78.51s-28.31-6.48-30.13-7.49-2.83-2.22-2.43-3.64,16.59-21,23.26-24.27,11.12-2.22,11.12-2.22,29.94,5.66,30.75,7.08S172.65,395.51,172.65,395.51Z" style="fill:#92E3A9;stroke:#263238;stroke-miterlimit:10"></path><path d="M164.86,399.08c1.41-1.12,2.86-2.18,4.33-3.13" style="fill:none;stroke:#263238;stroke-miterlimit:10"></path><path d="M144,421.46A128.93,128.93,0,0,1,162.57,401" style="fill:none;stroke:#263238;stroke-miterlimit:10"></path><polygon points="252.54 394.09 314.23 380.74 313.62 376.29 254.97 388.83 252.54 394.09" style="fill:#263238;stroke:#263238;stroke-miterlimit:10"></polygon><ellipse cx="267.98" cy="454.77" rx="69.53" ry="11.56" style="fill:#263238;stroke:#263238;stroke-miterlimit:10"></ellipse><ellipse cx="266.39" cy="452.42" rx="65.23" ry="9.22" style="fill:#263238;stroke:#263238;stroke-miterlimit:10"></ellipse><path d="M278.43,389.24H260.59a3.77,3.77,0,0,0-3.68,2.9c-2.51,10.56-11.08,46.31-12.46,47.86-1.62,1.82-8.5,1.82-12.14,4.45s.21,7.08,17.4,9.31,39.84,2,48.94-.81,8.3-6.27,6.48-8.29-10.12-2.84-12.75-4.45-11.12-47.13-11.52-48.95A2.83,2.83,0,0,0,278.43,389.24Z" style="fill:#263238;stroke:#263238;stroke-miterlimit:10"></path><path d="M287.13,431.91s15.37-18.81,17.59-21,8.7-7.89,8.09-9.71-16.38-5.87-22-5.87a78.43,78.43,0,0,0-8.9.41" style="fill:none;stroke:#263238;stroke-miterlimit:10;stroke-width:2px"></path></g><g id="freepik--character-2--inject-116"><path d="M371,150.35s-2-1.64-2.79.5.17,5.73,1.48,7.7a27.37,27.37,0,0,0,3.93,4.26Z" style="fill:none;stroke:#263238;stroke-miterlimit:10"></path><path d="M414.1,437.28s1.68,7.07,3,8.85,8.89,12,8.89,14.21-8.89,4.22-14.66,2.67-6.88-5.33-11.55-7.55-7.1-3.78-7.1-7.33,2.66-12.22,2.66-12.22a17.61,17.61,0,0,1,11.1-5.1C413.34,430.36,414.1,437.28,414.1,437.28Z" style="fill:#92E3A9;stroke:#263238;stroke-miterlimit:10"></path><path d="M426,460.34a4.7,4.7,0,0,0-.54-1.63c-2.65,2.25-10,4.5-14.34,2.52-4.89-2.22-8.44-6.22-12.22-9.77a32.12,32.12,0,0,0-6.15-4.39,10.42,10.42,0,0,0-.06,1.06c0,3.55,2.44,5.11,7.1,7.33s5.78,6,11.55,7.55S426,462.56,426,460.34Z" style="fill:#fff;stroke:#263238;stroke-miterlimit:10"></path><path d="M357,281.08l-.3,17.56s-4.16,65.75-1.48,67.53,21.12,3.87,22.31,2.09,12.2-46.42,12.2-46.42.89,63.37,1.49,66.65,3.57,33.62,3.57,33.62-3.87,1.48-2.38,5.05,2.38,10.71,2.38,10.71,3.27,2.09,6-.29,5.35-4.76,7.73-4.17,5.65,3.87,5.65,3.87,2.68-4.46,3-6.55-1.49-5.65-1.19-8.33.3-11,.3-11l2.08-54.15,4.46-63.07-.59-10.42Z" style="fill:#263238;stroke:#263238;stroke-miterlimit:10"></path><path d="M376,300.13s9.23,8.92,11.9,14.28" style="fill:none;stroke:#858585;stroke-miterlimit:10"></path><line x1="370.96" y1="297.75" x2="379.3" y2="306.97" style="fill:none;stroke:#858585;stroke-miterlimit:10"></line><path d="M427.46,424.82s-.22,14-.22,16-1.33,6.44-3.11,9.55-1.78,3.78.45,4.89,9.54,2,13.1-.89,4.66-5.55,4.88-8,3.56-13.55,4.44-14.88,6-7.78,5.11-12-1.77-6.22-2.66-6.89-10.66-2-10.66-2-5.11,8.44-7.11,10.22S427.46,424.82,427.46,424.82Z" style="fill:#92E3A9;stroke:#263238;stroke-miterlimit:10"></path><path d="M449.45,412.6a1.23,1.23,0,0,0-.2-.1,39,39,0,0,1-1.14,5.21c-.88,3.55-5.1,18-6.21,23.32s-3.33,11.54-8.66,12.88c-3.23.8-7.44-.27-10.25-1.23-.41,1.25.07,1.8,1.59,2.56,2.22,1.11,9.54,2,13.1-.89s4.66-5.55,4.88-8,3.56-13.55,4.44-14.88,6-7.78,5.11-12S450.34,413.27,449.45,412.6Z" style="fill:#fff;stroke:#263238;stroke-miterlimit:10"></path><path d="M354.46,360.51s-1.91,4.93,3.15,11.78,62.21,48,62.21,48-1.19,3-.3,3.87,9.82,3.57,9.82,3.57,10.71-2.38,11.9-7.74-2.38-11.3-2.38-11.3a20.1,20.1,0,0,0-3.87-2.08c-1.19-.3-36.6-30.95-36.6-30.95l-19.62-21.1" style="fill:#263238;stroke:#263238;stroke-miterlimit:10"></path><path d="M446.25,215.74s4.36,8.84,7.15,15.7,5.36,11.71,4.62,12.64-20.87,33.83-20.87,33.83.75,5,0,5.94-4.45,3-4.45,3,1.86-.19,1.86.92-.75,1.49-1.68,1.86-8.16,1.86-8.16,1.86-4.83-10.4-4.83-11.14,13-10.95,13-10.95l6.64-27.14L428.8,226.5Z" style="fill:#fff;stroke:#263238;stroke-miterlimit:10"></path><path d="M372,186.26l-19.79,6.28,3.34,90.94,31.73,17.63,5.94-9.84,3,9.46,28.58-16s-.56-8.91-.56-9.66a15.7,15.7,0,0,0-1.48-3.71c-.37-.74.93-42.49.93-42.49l.92-34.89-16.18-5.8Z" style="fill:#92E3A9;stroke:#263238;stroke-miterlimit:10"></path><polygon points="373.92 188.88 391.63 227.41 406.06 191.5 373.92 188.88" style="fill:#fff;stroke:#263238;stroke-miterlimit:10"></polygon><polygon points="387.37 192.16 383.1 201.51 371.95 186.26 375.07 179.54 384.58 178.39 403.93 180.03 408.35 188.23 400.32 201.83 390.81 191.34 387.37 192.16" style="fill:#fff;stroke:#263238;stroke-miterlimit:10"></polygon><polygon points="377.2 171.18 377.69 182.49 390.81 198.39 400.81 183.47 400.32 169.54 377.2 171.18" style="fill:#fff;stroke:#263238;stroke-miterlimit:10"></polygon><path d="M403.39,150.09s1.5-2.07,2.83-.21,1.27,5.59.48,7.83a27.43,27.43,0,0,1-2.75,5.1Z" style="fill:#fff;stroke:#263238;stroke-miterlimit:10"></path><path d="M391.3,126.91s-7.71-.82-12.13,1.15-9.67,4.26-10.17,8,2,14.26,2,14.26,1.15,8.86,2.62,12.46,1.15,6.73,2.46,8.86,8.36,7.38,11.15,8.19,5.25-.49,6.56-1.14,7.21-6.07,8.53-7.87,1.31-6.72,1.63-7.71,1.48-6.23.82-8.85a54.71,54.71,0,0,1-.82-6.89c-.16-1,.66-10.49-.16-13.44s-3.11-4.26-5.41-5.25A43.19,43.19,0,0,0,391.3,126.91Z" style="fill:#fff;stroke:#263238;stroke-miterlimit:10"></path><path d="M403.76,134c-.82-3-3.11-4.26-5.41-5.25a43.19,43.19,0,0,0-7.05-1.8s-7.71-.82-12.13,1.15-9.67,4.26-10.17,8,2,14.26,2,14.26.14,1.1.39,2.67l.27.12,1-3.93s3.12-2,3.12-3.61-2.3-6.39-1-7.87,7.38-.66,9.18.33,4.76,2,7.22,1.31,6.72-5.74,9.34-4.1-.49,9.51,0,10.49,2.62,6.4,2.62,6.4l1.21-.35c-.23-1.92-.27-3.72-.39-4.41C403.76,146.42,404.58,136.91,403.76,134Z" style="fill:#263238;stroke:#263238;stroke-miterlimit:10"></path><path d="M383.76,154.29c0,1.09-.48,2-1.07,2s-1.06-.88-1.06-2,.47-2,1.06-2S383.76,153.2,383.76,154.29Z" style="fill:#263238"></path><ellipse cx="393.76" cy="154.29" rx="1.07" ry="1.97" style="fill:#263238"></ellipse><path d="M377.2,150.68a7.57,7.57,0,0,1,6.72-1.47" style="fill:none;stroke:#263238;stroke-miterlimit:10;stroke-width:2px"></path><path d="M391.79,148.88s3.94-1.48,6.56,1.47" style="fill:none;stroke:#263238;stroke-miterlimit:10;stroke-width:2px"></path><path d="M398.19,166.58s-6.73-4.42-10.66-4.26-9,3.61-9,3.61l-2.62-3.44a31.47,31.47,0,0,1-4.1-7.87l-.13.24a46.12,46.12,0,0,0,1.93,7.95c1.48,3.61,1.15,6.73,2.46,8.86s8.36,7.38,11.15,8.19,5.25-.49,6.56-1.14,7.21-6.07,8.53-7.87,1.31-6.72,1.63-7.71,1.48-6.23.82-8.85c0,0-.49,2.29-1.47,5.57S398.19,166.58,398.19,166.58Z" style="fill:#263238;stroke:#263238;stroke-miterlimit:10"></path><path d="M385.23,159.7s-.82,3.28-.32,3.93,2.95,2.14,4.1,1.48a5.37,5.37,0,0,0,2.45-3c.33-1.15-.65-2.95-.65-2.95" style="fill:#fff;stroke:#263238;stroke-miterlimit:10"></path><path d="M382.94,167.4a9.92,9.92,0,0,0,10.66.17" style="fill:none;stroke:#858585;stroke-miterlimit:10"></path><path d="M340.84,215s-7.32,30.71-7.69,34.24.93,4.64,2,5,47.59,10.11,47.59,10.11-.19,7.61,1.48,9.28S390,279,390,279l.18,3.16-3-.75s-2.6-2.59-2.6-.92,3.34,4.27,3.34,4.27,5,2.22,5.76,1.29,3.15-3,4.45-4.64.37-4.26,0-6.12-3.9-12.06-5.94-13.92a16.75,16.75,0,0,0-3.15-2.41l-34.64-17.59,4.95-16.74Z" style="fill:#fff;stroke:#263238;stroke-miterlimit:10"></path><line x1="354.45" y1="241.39" x2="347.31" y2="241.6" style="fill:none;stroke:#263238;stroke-miterlimit:10"></line><path d="M359.4,224.65l-19.12-11s3-13.73,6.68-19.49,15.78-4.45,15.78-4.45S367,212.4,359.4,224.65Z" style="fill:#fff;stroke:#263238;stroke-miterlimit:10"></path><polygon points="339.54 210.54 338.43 216.48 359.02 226.87 361.44 223.53 339.54 210.54" style="fill:#fff;stroke:#263238;stroke-miterlimit:10"></polygon><path d="M424.53,194a17.47,17.47,0,0,1,9.65,5c3.9,4.27,12.07,17.26,12.07,16.7s-20.79,12.06-20.79,12.06L424,225Z" style="fill:#fff;stroke:#263238;stroke-miterlimit:10"></path><polygon points="423.98 225.02 446.43 211.66 449.03 215.74 425.65 229.1 423.98 225.02" style="fill:#fff;stroke:#263238;stroke-miterlimit:10"></polygon></g></svg>
