<svg version="1.1" id="Layer_1" xmlns="http://www.w3.org/2000/svg" xmlns:xlink="http://www.w3.org/1999/xlink" x="0px" y="0px"
	 width="100%" viewBox="0 0 1814 1812" enable-background="new 0 0 1814 1812" xml:space="preserve">
<path fill="#FFFFFF" opacity="1.000000" stroke="none" 
	d="
M1813.000000,1813.000000 
	C1209.962402,1813.000000 606.924805,1813.000000 3.441591,1812.536133 
	C2.995976,1209.164429 2.995976,606.256653 2.995976,3.322797 
	C606.699280,3.322797 1209.604370,3.322797 1813.000000,3.322797 
	C1813.000000,606.768250 1813.000000,1209.884155 1813.000000,1813.000000 
M229.417816,995.092590 
	C248.813919,1020.091309 268.195801,1045.101074 287.610565,1070.085205 
	C303.448761,1090.466797 319.031891,1111.056274 335.276154,1131.109741 
	C349.212402,1148.313843 377.185608,1148.964600 391.514648,1133.114380 
	C397.537476,1126.452271 398.680481,1118.328247 398.682465,1109.848389 
	C398.693512,1062.023560 398.687958,1014.198792 398.687897,966.373962 
	C398.687866,927.380920 398.664795,888.387817 398.701752,849.394775 
	C398.712402,838.141968 395.704590,828.542175 384.537933,823.566284 
	C374.783966,819.219788 364.748993,819.340759 354.884033,823.098511 
	C343.102539,827.586243 337.998413,835.368103 337.998016,847.965942 
	C337.996277,900.623230 337.977051,953.280579 338.030212,1005.937805 
	C338.035065,1010.756653 338.521790,1015.574219 338.761627,1020.393616 
	C339.110504,1027.403687 339.438354,1034.414795 339.822998,1042.421387 
	C338.238312,1040.650146 337.310791,1039.738403 336.525085,1038.717407 
	C300.574951,991.997620 264.672485,945.241150 228.682449,898.552063 
	C211.604370,876.397095 194.516083,854.246338 177.121567,832.340515 
	C169.603775,822.872986 158.939682,819.339172 147.245987,820.719727 
	C129.411377,822.825195 119.935783,834.163574 119.930115,852.226685 
	C119.907059,925.713623 119.917435,999.200562 119.919434,1072.687500 
	C119.919853,1088.018066 119.832161,1103.349487 119.980476,1118.678711 
	C120.095467,1130.564453 127.315437,1139.880127 138.680634,1142.859741 
	C142.193802,1143.780884 145.899475,1144.384155 149.521194,1144.404907 
	C168.186295,1144.511719 180.675507,1133.664795 180.374649,1115.171875 
	C179.772949,1078.188232 180.350922,1041.187134 180.140869,1004.194885 
	C180.011353,981.383545 179.324661,958.575317 178.893723,935.765625 
	C178.867294,934.366516 178.890305,932.966553 178.890305,930.051453 
	C196.188614,952.323853 212.580963,973.429810 229.417816,995.092590 
M1031.707520,1029.120117 
	C1028.054199,1037.465454 1024.401001,1045.810791 1020.517639,1054.681519 
	C1019.553772,1052.925659 1018.789490,1051.669312 1018.151917,1050.351685 
	C1006.069092,1025.381104 994.019653,1000.394470 981.923950,975.430115 
	C973.305664,957.642822 964.828796,939.782654 955.906311,922.148560 
	C950.281433,911.031799 940.788574,905.482300 928.264038,906.096619 
	C916.486389,906.674194 908.089844,912.363586 902.892212,923.268921 
	C890.457397,949.358459 877.664673,975.277405 865.018372,1001.266113 
	C856.597900,1018.570618 848.180725,1035.876709 839.483398,1053.754761 
	C838.504395,1051.698730 837.758850,1050.238770 837.102783,1048.739624 
	C816.331421,1001.275452 795.622986,953.783569 774.713257,906.380432 
	C772.808105,902.061523 770.190552,897.750732 766.917480,894.399475 
	C757.702515,884.964111 744.711121,883.175110 732.935059,888.995422 
	C721.242493,894.774414 715.301514,904.782043 717.049744,916.769165 
	C717.612671,920.628723 719.256592,924.402832 720.829895,928.032104 
	C750.221069,995.827454 779.677612,1063.594482 809.115112,1131.369751 
	C811.807068,1137.567505 815.027466,1143.274902 821.432190,1146.490967 
	C837.301819,1154.459351 857.408203,1147.832520 865.141052,1131.939819 
	C879.819763,1101.771729 894.444092,1071.577271 909.100830,1041.398560 
	C916.118042,1026.949951 923.157349,1012.512146 930.388550,997.654724 
	C931.401245,999.668030 932.177734,1001.131348 932.884033,1002.627747 
	C953.298889,1045.882202 973.804077,1089.094360 994.055786,1132.425171 
	C1000.042786,1145.234985 1010.437988,1149.397583 1023.590820,1149.477295 
	C1036.655029,1149.556396 1045.180054,1144.193237 1050.424683,1131.584961 
	C1071.087280,1081.911133 1092.409058,1032.511353 1113.484985,983.009338 
	C1121.811523,963.452576 1130.255249,943.944580 1138.426758,924.323242 
	C1146.579834,904.746277 1134.922363,886.498352 1113.895264,885.590027 
	C1101.143433,885.039185 1091.677002,891.188110 1086.017456,904.150208 
	C1067.944336,945.543274 1049.977661,986.982849 1031.707520,1029.120117 
M1360.473633,899.125977 
	C1359.600586,901.236267 1358.727539,903.346558 1357.799805,905.588867 
	C1356.724243,904.907349 1355.866333,904.409302 1355.055664,903.843384 
	C1331.350342,887.296021 1305.217529,878.943604 1276.181885,880.987366 
	C1228.237427,884.362000 1192.776367,906.999512 1173.003174,951.148010 
	C1154.448486,992.575623 1156.254028,1035.177246 1171.168701,1077.215698 
	C1181.133789,1105.302856 1199.586060,1126.831909 1227.345459,1138.959961 
	C1264.237793,1155.078003 1300.938232,1152.381104 1336.983887,1135.852417 
	C1344.248291,1132.521484 1350.949951,1127.962891 1357.693604,1124.095093 
	C1359.298096,1127.376465 1360.492310,1130.913574 1362.555542,1133.837524 
	C1369.369995,1143.494873 1384.332886,1147.070312 1397.971313,1142.640991 
	C1409.152710,1139.009888 1415.569214,1129.737183 1415.581055,1116.489014 
	C1415.640991,1049.165894 1415.625488,981.842651 1415.560913,914.519531 
	C1415.557739,911.221436 1415.242310,907.817017 1414.389893,904.645630 
	C1411.415405,893.580688 1403.557373,887.598145 1392.647095,886.100891 
	C1379.983276,884.362976 1368.294434,886.254211 1360.473633,899.125977 
M461.772003,930.286194 
	C459.508789,933.577148 457.020233,936.736938 455.016876,940.179138 
	C432.185822,979.408325 429.313446,1020.877441 442.921906,1063.449707 
	C454.110809,1098.452759 477.031311,1123.717773 511.164062,1137.985107 
	C544.990662,1152.124512 579.752075,1153.182495 614.766785,1143.105103 
	C653.028687,1132.092773 679.901550,1107.873901 695.042419,1071.050293 
	C706.862122,1042.303955 708.346008,1012.493591 701.899292,982.351379 
	C693.267944,941.994812 671.289307,911.662781 633.422180,893.753784 
	C607.018799,881.266479 579.169495,878.745972 550.552246,881.888672 
	C514.635193,885.833008 484.756805,901.058533 461.772003,930.286194 
M1618.386353,823.101013 
	C1615.244995,821.275574 1612.262817,819.064880 1608.935303,817.690063 
	C1592.793701,811.021118 1567.440674,819.291199 1568.957397,845.104919 
	C1569.601318,856.063599 1569.064819,867.091492 1569.064697,878.087952 
	C1569.064697,880.504272 1569.064697,882.920593 1569.064697,885.949097 
	C1560.367065,885.949097 1552.356079,885.570312 1544.395874,886.044556 
	C1534.350342,886.643127 1525.399170,893.884949 1522.770874,903.341553 
	C1520.124023,912.865356 1522.692261,921.146484 1530.207764,927.640015 
	C1535.927124,932.581482 1542.978760,933.804260 1550.240112,933.972107 
	C1556.491821,934.116699 1562.749512,934.002136 1569.066772,934.002136 
	C1569.066772,974.204285 1568.747192,1013.694641 1569.249268,1053.174438 
	C1569.413330,1066.077881 1570.594360,1079.191895 1573.269043,1091.793823 
	C1579.096191,1119.248535 1594.852905,1138.633667 1622.812988,1146.203369 
	C1638.605225,1150.478760 1654.866089,1151.089355 1670.842041,1148.144653 
	C1679.459839,1146.556274 1687.912598,1142.839355 1695.786133,1138.806274 
	C1703.097900,1135.060913 1708.005493,1128.452637 1709.051025,1119.895508 
	C1710.207764,1110.429688 1707.157349,1102.472290 1699.358643,1096.699463 
	C1690.421753,1090.083984 1680.850952,1090.467407 1670.945068,1094.286011 
	C1666.323975,1096.067383 1661.662598,1097.947876 1656.847168,1098.982544 
	C1643.316162,1101.890015 1633.614990,1096.649902 1630.152832,1083.237671 
	C1627.814209,1074.178223 1626.902344,1064.539185 1626.817139,1055.146118 
	C1626.462280,1015.995300 1626.662598,976.839417 1626.659180,937.685425 
	C1626.659058,936.579590 1626.659058,935.473694 1626.659058,934.003418 
	C1628.606689,934.003418 1630.075317,934.009155 1631.543945,934.002441 
	C1644.204834,933.944458 1656.887085,934.322266 1669.520752,933.705322 
	C1682.994141,933.047363 1692.680664,923.651672 1693.696899,911.451294 
	C1694.657349,899.920837 1686.177368,888.725769 1673.755005,886.425476 
	C1667.441040,885.256287 1660.822388,885.607361 1654.337891,885.514832 
	C1645.242310,885.384949 1636.143433,885.482056 1626.658569,885.482056 
	C1626.658569,871.404785 1626.653931,857.943542 1626.660400,844.482361 
	C1626.664185,836.553894 1624.826538,829.315063 1618.386353,823.101013 
M998.025452,615.474670 
	C984.187500,601.282654 970.320312,587.118958 956.525391,572.885193 
	C950.667297,566.840759 943.554443,564.102112 935.309937,565.195618 
	C924.845703,566.583618 916.022827,571.511597 909.214722,579.551514 
	C896.614807,594.431335 895.220215,611.571655 910.706360,626.468811 
	C936.759033,651.530640 962.039551,677.395142 987.635925,702.930969 
	C988.877502,704.169556 990.033081,705.494385 991.420349,706.985046 
	C977.046509,720.211060 963.092285,733.041321 949.149109,745.883545 
	C934.089172,759.754333 918.911865,773.501648 904.047180,787.578857 
	C897.984863,793.319946 896.028076,800.650635 897.741333,809.059631 
	C899.961609,819.957397 906.212585,828.165161 914.565247,834.857605 
	C927.998657,845.620789 943.032166,845.866821 953.584778,835.808777 
	C968.532288,821.561646 983.431824,807.264038 998.332581,792.967896 
	C1023.327332,768.987122 1048.328735,745.013123 1073.273193,720.980103 
	C1077.917847,716.505127 1082.308350,711.766174 1087.070801,706.888184 
	C1057.513794,676.543579 1028.017578,646.261230 998.025452,615.474670 
M1114.453979,676.046265 
	C1126.233032,687.948303 1138.012085,699.850342 1150.010254,711.973755 
	C1137.586182,723.415833 1125.345093,734.684937 1113.109131,745.959412 
	C1096.576660,761.192688 1080.042725,776.424438 1063.520386,791.668701 
	C1057.899780,796.854492 1055.208374,803.250366 1055.982422,810.911377 
	C1057.195190,822.914124 1063.337158,832.256775 1072.654053,839.366882 
	C1087.419067,850.634766 1101.971924,852.381287 1116.492310,836.917358 
	C1124.689453,828.187500 1133.706543,820.227783 1142.345093,811.911560 
	C1173.780640,781.648560 1205.209595,751.378906 1236.649048,721.119873 
	C1239.611694,718.268433 1242.629639,715.474426 1245.770020,712.514038 
	C1244.579346,711.123596 1243.779175,710.081604 1242.870850,709.144165 
	C1225.718506,691.440674 1208.570801,673.732727 1191.386841,656.059814 
	C1166.422729,630.385254 1141.411011,604.756714 1116.462524,579.066833 
	C1109.328125,571.720337 1101.085938,568.286743 1090.781250,570.834656 
	C1075.134766,574.703369 1064.624023,584.362549 1059.452271,599.422974 
	C1055.801880,610.053223 1058.145020,619.930298 1066.123413,627.970886 
	C1081.962036,643.933289 1097.998413,659.699646 1114.453979,676.046265 
M736.510742,747.008606 
	C748.822937,735.348511 761.181458,723.736694 773.427673,712.007690 
	C779.454468,706.235352 779.401733,706.081238 773.651978,700.201294 
	C756.542603,682.704834 739.372437,665.267761 722.279541,647.755188 
	C715.194458,640.496216 708.309937,633.041321 701.221741,625.785461 
	C683.422546,607.565308 665.625793,589.341736 647.682678,571.263794 
	C641.990662,565.528992 634.871582,563.021973 626.745972,564.256592 
	C616.481384,565.816284 607.902283,570.713806 601.129883,578.453369 
	C589.217041,592.067383 586.595276,609.916870 601.324829,624.112305 
	C627.713684,649.544373 653.308472,675.800476 679.224731,701.722656 
	C680.579651,703.077881 681.836853,704.530884 683.106201,705.902283 
	C674.762451,713.715576 666.913330,721.113342 659.010620,728.453369 
	C650.124817,736.706238 641.194214,744.911011 632.276489,753.129456 
	C619.941162,764.497437 607.550049,775.805542 595.287537,787.251526 
	C590.954529,791.295959 588.786255,796.521423 589.038513,802.454834 
	C589.669861,817.303284 597.410889,827.956482 609.405273,835.909912 
	C623.794983,845.451660 636.131042,844.073486 648.419678,832.117432 
	C664.035095,816.924622 679.900818,801.989441 695.579834,786.861511 
	C709.113953,773.803101 722.537781,760.630310 736.510742,747.008606 
M927.007507,714.506775 
	C929.769958,711.732361 932.532410,708.958008 935.411682,706.066223 
	C920.488464,690.737427 906.072937,675.965027 891.700928,661.150452 
	C885.908203,655.179260 880.282654,649.045105 874.457458,643.106201 
	C850.663513,618.848267 826.882568,594.576965 802.953796,570.452454 
	C797.168396,564.619751 789.878601,563.188843 781.777771,564.508362 
	C770.149963,566.402344 761.728943,573.202576 754.796692,581.987488 
	C745.301941,594.019653 744.949829,612.123352 757.358154,624.032776 
	C783.793518,649.405334 809.527466,675.507568 835.695801,701.160889 
	C839.027893,704.427551 839.515259,706.424072 835.795715,709.788025 
	C818.527954,725.405029 801.514282,741.302612 784.350220,757.034912 
	C774.792175,765.795654 765.184143,774.504456 755.472351,783.093933 
	C749.031067,788.791016 744.480835,795.649841 745.451294,804.337524 
	C747.287476,820.774414 757.044006,831.937439 771.474915,839.057495 
	C781.557190,844.031921 791.545471,843.480713 800.392334,836.008728 
	C805.596252,831.613586 810.413879,826.755676 815.339233,822.036987 
	C832.046448,806.030945 848.743774,790.014526 865.408264,773.963989 
	C885.792908,754.330566 906.140503,734.658630 927.007507,714.506775 
M1519.881592,995.500000 
	C1519.881592,968.681030 1519.422852,941.851624 1520.037842,915.046753 
	C1520.470581,896.182922 1509.110107,887.102051 1493.678589,885.661621 
	C1478.669922,884.260559 1461.005371,893.471497 1461.625122,913.820618 
	C1462.623779,946.605957 1461.893311,979.443909 1461.893433,1012.259644 
	C1461.893677,1047.407471 1461.933472,1082.555298 1461.855103,1117.702881 
	C1461.842163,1123.539551 1462.820312,1128.963257 1466.452637,1133.660034 
	C1473.745239,1143.089600 1489.172241,1147.003296 1502.046265,1142.739746 
	C1514.165771,1138.726074 1519.877441,1130.157471 1519.879395,1115.935913 
	C1519.885132,1076.123901 1519.881592,1036.312012 1519.881592,995.500000 
M1514.500732,860.929810 
	C1518.475342,855.305969 1520.364746,849.079407 1520.113403,842.169983 
	C1519.658569,829.668457 1513.729370,820.636597 1502.568359,815.298767 
	C1491.100830,809.814270 1480.018921,811.371521 1470.268799,819.235840 
	C1460.472534,827.137451 1456.892700,837.784912 1459.784180,850.060364 
	C1462.630859,862.145386 1470.498413,869.985107 1482.545166,872.741272 
	C1495.176636,875.631226 1505.833618,871.656250 1514.500732,860.929810 
z"/>
<path fill="#E8EAEF" opacity="1.000000" stroke="none" 
	d="
M1813.500000,1813.000000 
	C1813.000000,1209.884155 1813.000000,606.768250 1813.000000,3.322797 
	C1209.604370,3.322797 606.699280,3.322797 2.995976,3.322797 
	C2.995976,606.256653 2.995976,1209.164429 2.998005,1812.536133 
	C2.333368,1812.666626 1.216470,1812.451904 1.090983,1811.975952 
	C0.803524,1810.885132 1.000000,1809.666626 1.000000,1808.500000 
	C1.000000,1206.000244 1.000000,603.500427 1.000000,1.000487 
	C605.666199,1.000324 1210.332397,1.000324 1814.999268,1.000162 
	C1815.000000,603.499329 1815.000732,1205.998657 1814.958740,1808.498047 
	C1814.958618,1809.998657 1814.333252,1811.499390 1813.500000,1813.000000 
z"/>
<path fill="#5FC89A" opacity="1.000000" stroke="none" 
	d="
M229.195557,994.814209 
	C212.580963,973.429810 196.188614,952.323853 178.890305,930.051453 
	C178.890305,932.966553 178.867294,934.366516 178.893723,935.765625 
	C179.324661,958.575317 180.011353,981.383545 180.140869,1004.194885 
	C180.350922,1041.187134 179.772949,1078.188232 180.374649,1115.171875 
	C180.675507,1133.664795 168.186295,1144.511719 149.521194,1144.404907 
	C145.899475,1144.384155 142.193802,1143.780884 138.680634,1142.859741 
	C127.315437,1139.880127 120.095467,1130.564453 119.980476,1118.678711 
	C119.832161,1103.349487 119.919853,1088.018066 119.919434,1072.687500 
	C119.917435,999.200562 119.907059,925.713623 119.930115,852.226685 
	C119.935783,834.163574 129.411377,822.825195 147.245987,820.719727 
	C158.939682,819.339172 169.603775,822.872986 177.121567,832.340515 
	C194.516083,854.246338 211.604370,876.397095 228.682449,898.552063 
	C264.672485,945.241150 300.574951,991.997620 336.525085,1038.717407 
	C337.310791,1039.738403 338.238312,1040.650146 339.822998,1042.421387 
	C339.438354,1034.414795 339.110504,1027.403687 338.761627,1020.393616 
	C338.521790,1015.574219 338.035065,1010.756653 338.030212,1005.937805 
	C337.977051,953.280579 337.996277,900.623230 337.998016,847.965942 
	C337.998413,835.368103 343.102539,827.586243 354.884033,823.098511 
	C364.748993,819.340759 374.783966,819.219788 384.537933,823.566284 
	C395.704590,828.542175 398.712402,838.141968 398.701752,849.394775 
	C398.664795,888.387817 398.687866,927.380920 398.687897,966.373962 
	C398.687958,1014.198792 398.693512,1062.023560 398.682465,1109.848389 
	C398.680481,1118.328247 397.537476,1126.452271 391.514648,1133.114380 
	C377.185608,1148.964600 349.212402,1148.313843 335.276154,1131.109741 
	C319.031891,1111.056274 303.448761,1090.466797 287.610565,1070.085205 
	C268.195801,1045.101074 248.813919,1020.091309 229.195557,994.814209 
z"/>
<path fill="#0F1527" opacity="1.000000" stroke="none" 
	d="
M1031.838623,1028.762207 
	C1049.977661,986.982849 1067.944336,945.543274 1086.017456,904.150208 
	C1091.677002,891.188110 1101.143433,885.039185 1113.895264,885.590027 
	C1134.922363,886.498352 1146.579834,904.746277 1138.426758,924.323242 
	C1130.255249,943.944580 1121.811523,963.452576 1113.484985,983.009338 
	C1092.409058,1032.511353 1071.087280,1081.911133 1050.424683,1131.584961 
	C1045.180054,1144.193237 1036.655029,1149.556396 1023.590820,1149.477295 
	C1010.437988,1149.397583 1000.042786,1145.234985 994.055786,1132.425171 
	C973.804077,1089.094360 953.298889,1045.882202 932.884033,1002.627747 
	C932.177734,1001.131348 931.401245,999.668030 930.388550,997.654724 
	C923.157349,1012.512146 916.118042,1026.949951 909.100830,1041.398560 
	C894.444092,1071.577271 879.819763,1101.771729 865.141052,1131.939819 
	C857.408203,1147.832520 837.301819,1154.459351 821.432190,1146.490967 
	C815.027466,1143.274902 811.807068,1137.567505 809.115112,1131.369751 
	C779.677612,1063.594482 750.221069,995.827454 720.829895,928.032104 
	C719.256592,924.402832 717.612671,920.628723 717.049744,916.769165 
	C715.301514,904.782043 721.242493,894.774414 732.935059,888.995422 
	C744.711121,883.175110 757.702515,884.964111 766.917480,894.399475 
	C770.190552,897.750732 772.808105,902.061523 774.713257,906.380432 
	C795.622986,953.783569 816.331421,1001.275452 837.102783,1048.739624 
	C837.758850,1050.238770 838.504395,1051.698730 839.483398,1053.754761 
	C848.180725,1035.876709 856.597900,1018.570618 865.018372,1001.266113 
	C877.664673,975.277405 890.457397,949.358459 902.892212,923.268921 
	C908.089844,912.363586 916.486389,906.674194 928.264038,906.096619 
	C940.788574,905.482300 950.281433,911.031799 955.906311,922.148560 
	C964.828796,939.782654 973.305664,957.642822 981.923950,975.430115 
	C994.019653,1000.394470 1006.069092,1025.381104 1018.151917,1050.351685 
	C1018.789490,1051.669312 1019.553772,1052.925659 1020.517639,1054.681519 
	C1024.401001,1045.810791 1028.054199,1037.465454 1031.838623,1028.762207 
z"/>
<path fill="#0F1527" opacity="1.000000" stroke="none" 
	d="
M1360.664917,898.800781 
	C1368.294434,886.254211 1379.983276,884.362976 1392.647095,886.100891 
	C1403.557373,887.598145 1411.415405,893.580688 1414.389893,904.645630 
	C1415.242310,907.817017 1415.557739,911.221436 1415.560913,914.519531 
	C1415.625488,981.842651 1415.640991,1049.165894 1415.581055,1116.489014 
	C1415.569214,1129.737183 1409.152710,1139.009888 1397.971313,1142.640991 
	C1384.332886,1147.070312 1369.369995,1143.494873 1362.555542,1133.837524 
	C1360.492310,1130.913574 1359.298096,1127.376465 1357.693604,1124.095093 
	C1350.949951,1127.962891 1344.248291,1132.521484 1336.983887,1135.852417 
	C1300.938232,1152.381104 1264.237793,1155.078003 1227.345459,1138.959961 
	C1199.586060,1126.831909 1181.133789,1105.302856 1171.168701,1077.215698 
	C1156.254028,1035.177246 1154.448486,992.575623 1173.003174,951.148010 
	C1192.776367,906.999512 1228.237427,884.362000 1276.181885,880.987366 
	C1305.217529,878.943604 1331.350342,887.296021 1355.055664,903.843384 
	C1355.866333,904.409302 1356.724243,904.907349 1357.799805,905.588867 
	C1358.727539,903.346558 1359.600586,901.236267 1360.664917,898.800781 
M1340.634521,1080.144531 
	C1343.203613,1077.776367 1345.934814,1075.559082 1348.310303,1073.010498 
	C1354.489624,1066.381226 1358.093750,1059.094116 1357.846802,1049.365356 
	C1357.225464,1024.881226 1357.738892,1000.369812 1357.521606,975.871826 
	C1357.494141,972.763977 1356.506714,969.214844 1354.799805,966.642944 
	C1341.117920,946.028076 1321.459106,935.009583 1297.117798,932.629761 
	C1269.366943,929.916748 1246.656616,939.574524 1232.029419,963.664795 
	C1213.886108,993.546265 1214.238159,1025.431274 1226.180664,1057.322754 
	C1233.307251,1076.353882 1246.605225,1090.549927 1266.741211,1095.549072 
	C1293.198608,1102.117920 1317.844727,1096.423706 1340.634521,1080.144531 
z"/>
<path fill="#5FC89A" opacity="1.000000" stroke="none" 
	d="
M461.965210,929.987549 
	C484.756805,901.058533 514.635193,885.833008 550.552246,881.888672 
	C579.169495,878.745972 607.018799,881.266479 633.422180,893.753784 
	C671.289307,911.662781 693.267944,941.994812 701.899292,982.351379 
	C708.346008,1012.493591 706.862122,1042.303955 695.042419,1071.050293 
	C679.901550,1107.873901 653.028687,1132.092773 614.766785,1143.105103 
	C579.752075,1153.182495 544.990662,1152.124512 511.164062,1137.985107 
	C477.031311,1123.717773 454.110809,1098.452759 442.921906,1063.449707 
	C429.313446,1020.877441 432.185822,979.408325 455.016876,940.179138 
	C457.020233,936.736938 459.508789,933.577148 461.965210,929.987549 
M574.082886,931.482117 
	C570.439819,931.596924 566.789612,931.603271 563.154907,931.844177 
	C539.966064,933.381165 521.910095,944.069397 509.204712,963.299866 
	C494.439484,985.648010 492.186737,1010.499939 496.574371,1036.206421 
	C499.912628,1055.764893 508.838165,1072.394653 524.988281,1084.454102 
	C540.819336,1096.275391 558.931091,1099.842529 578.305359,1098.108521 
	C602.654846,1095.929199 621.647522,1084.863281 634.093018,1063.608887 
	C646.941406,1041.666382 648.612305,1017.876770 643.735352,993.556335 
	C636.284302,956.399719 609.183594,932.625366 574.082886,931.482117 
z"/>
<path fill="#101628" opacity="1.000000" stroke="none" 
	d="
M1618.646973,823.344116 
	C1624.826538,829.315063 1626.664185,836.553894 1626.660400,844.482361 
	C1626.653931,857.943542 1626.658569,871.404785 1626.658569,885.482056 
	C1636.143433,885.482056 1645.242310,885.384949 1654.337891,885.514832 
	C1660.822388,885.607361 1667.441040,885.256287 1673.755005,886.425476 
	C1686.177368,888.725769 1694.657349,899.920837 1693.696899,911.451294 
	C1692.680664,923.651672 1682.994141,933.047363 1669.520752,933.705322 
	C1656.887085,934.322266 1644.204834,933.944458 1631.543945,934.002441 
	C1630.075317,934.009155 1628.606689,934.003418 1626.659058,934.003418 
	C1626.659058,935.473694 1626.659058,936.579590 1626.659180,937.685425 
	C1626.662598,976.839417 1626.462280,1015.995300 1626.817139,1055.146118 
	C1626.902344,1064.539185 1627.814209,1074.178223 1630.152832,1083.237671 
	C1633.614990,1096.649902 1643.316162,1101.890015 1656.847168,1098.982544 
	C1661.662598,1097.947876 1666.323975,1096.067383 1670.945068,1094.286011 
	C1680.850952,1090.467407 1690.421753,1090.083984 1699.358643,1096.699463 
	C1707.157349,1102.472290 1710.207764,1110.429688 1709.051025,1119.895508 
	C1708.005493,1128.452637 1703.097900,1135.060913 1695.786133,1138.806274 
	C1687.912598,1142.839355 1679.459839,1146.556274 1670.842041,1148.144653 
	C1654.866089,1151.089355 1638.605225,1150.478760 1622.812988,1146.203369 
	C1594.852905,1138.633667 1579.096191,1119.248535 1573.269043,1091.793823 
	C1570.594360,1079.191895 1569.413330,1066.077881 1569.249268,1053.174438 
	C1568.747192,1013.694641 1569.066772,974.204285 1569.066772,934.002136 
	C1562.749512,934.002136 1556.491821,934.116699 1550.240112,933.972107 
	C1542.978760,933.804260 1535.927124,932.581482 1530.207764,927.640015 
	C1522.692261,921.146484 1520.124023,912.865356 1522.770874,903.341553 
	C1525.399170,893.884949 1534.350342,886.643127 1544.395874,886.044556 
	C1552.356079,885.570312 1560.367065,885.949097 1569.064697,885.949097 
	C1569.064697,882.920593 1569.064697,880.504272 1569.064697,878.087952 
	C1569.064819,867.091492 1569.601318,856.063599 1568.957397,845.104919 
	C1567.440674,819.291199 1592.793701,811.021118 1608.935303,817.690063 
	C1612.262817,819.064880 1615.244995,821.275574 1618.646973,823.344116 
z"/>
<path fill="#86D6B3" opacity="1.000000" stroke="none" 
	d="
M998.273376,615.726807 
	C1028.017578,646.261230 1057.513794,676.543579 1087.070801,706.888184 
	C1082.308350,711.766174 1077.917847,716.505127 1073.273193,720.980103 
	C1048.328735,745.013123 1023.327332,768.987122 998.332581,792.967896 
	C983.431824,807.264038 968.532288,821.561646 953.584778,835.808777 
	C943.032166,845.866821 927.998657,845.620789 914.565247,834.857605 
	C906.212585,828.165161 899.961609,819.957397 897.741333,809.059631 
	C896.028076,800.650635 897.984863,793.319946 904.047180,787.578857 
	C918.911865,773.501648 934.089172,759.754333 949.149109,745.883545 
	C963.092285,733.041321 977.046509,720.211060 991.420349,706.985046 
	C990.033081,705.494385 988.877502,704.169556 987.635925,702.930969 
	C962.039551,677.395142 936.759033,651.530640 910.706360,626.468811 
	C895.220215,611.571655 896.614807,594.431335 909.214722,579.551514 
	C916.022827,571.511597 924.845703,566.583618 935.309937,565.195618 
	C943.554443,564.102112 950.667297,566.840759 956.525391,572.885193 
	C970.320312,587.118958 984.187500,601.282654 998.273376,615.726807 
z"/>
<path fill="#5FC89A" opacity="1.000000" stroke="none" 
	d="
M1114.203491,675.796631 
	C1097.998413,659.699646 1081.962036,643.933289 1066.123413,627.970886 
	C1058.145020,619.930298 1055.801880,610.053223 1059.452271,599.422974 
	C1064.624023,584.362549 1075.134766,574.703369 1090.781250,570.834656 
	C1101.085938,568.286743 1109.328125,571.720337 1116.462524,579.066833 
	C1141.411011,604.756714 1166.422729,630.385254 1191.386841,656.059814 
	C1208.570801,673.732727 1225.718506,691.440674 1242.870850,709.144165 
	C1243.779175,710.081604 1244.579346,711.123596 1245.770020,712.514038 
	C1242.629639,715.474426 1239.611694,718.268433 1236.649048,721.119873 
	C1205.209595,751.378906 1173.780640,781.648560 1142.345093,811.911560 
	C1133.706543,820.227783 1124.689453,828.187500 1116.492310,836.917358 
	C1101.971924,852.381287 1087.419067,850.634766 1072.654053,839.366882 
	C1063.337158,832.256775 1057.195190,822.914124 1055.982422,810.911377 
	C1055.208374,803.250366 1057.899780,796.854492 1063.520386,791.668701 
	C1080.042725,776.424438 1096.576660,761.192688 1113.109131,745.959412 
	C1125.345093,734.684937 1137.586182,723.415833 1150.010254,711.973755 
	C1138.012085,699.850342 1126.233032,687.948303 1114.203491,675.796631 
z"/>
<path fill="#D7F1E6" opacity="1.000000" stroke="none" 
	d="
M736.260498,747.258362 
	C722.537781,760.630310 709.113953,773.803101 695.579834,786.861511 
	C679.900818,801.989441 664.035095,816.924622 648.419678,832.117432 
	C636.131042,844.073486 623.794983,845.451660 609.405273,835.909912 
	C597.410889,827.956482 589.669861,817.303284 589.038513,802.454834 
	C588.786255,796.521423 590.954529,791.295959 595.287537,787.251526 
	C607.550049,775.805542 619.941162,764.497437 632.276489,753.129456 
	C641.194214,744.911011 650.124817,736.706238 659.010620,728.453369 
	C666.913330,721.113342 674.762451,713.715576 683.106201,705.902283 
	C681.836853,704.530884 680.579651,703.077881 679.224731,701.722656 
	C653.308472,675.800476 627.713684,649.544373 601.324829,624.112305 
	C586.595276,609.916870 589.217041,592.067383 601.129883,578.453369 
	C607.902283,570.713806 616.481384,565.816284 626.745972,564.256592 
	C634.871582,563.021973 641.990662,565.528992 647.682678,571.263794 
	C665.625793,589.341736 683.422546,607.565308 701.221741,625.785461 
	C708.309937,633.041321 715.194458,640.496216 722.279541,647.755188 
	C739.372437,665.267761 756.542603,682.704834 773.651978,700.201294 
	C779.401733,706.081238 779.454468,706.235352 773.427673,712.007690 
	C761.181458,723.736694 748.822937,735.348511 736.260498,747.258362 
z"/>
<path fill="#AFE3CC" opacity="1.000000" stroke="none" 
	d="
M926.755798,714.755005 
	C906.140503,734.658630 885.792908,754.330566 865.408264,773.963989 
	C848.743774,790.014526 832.046448,806.030945 815.339233,822.036987 
	C810.413879,826.755676 805.596252,831.613586 800.392334,836.008728 
	C791.545471,843.480713 781.557190,844.031921 771.474915,839.057495 
	C757.044006,831.937439 747.287476,820.774414 745.451294,804.337524 
	C744.480835,795.649841 749.031067,788.791016 755.472351,783.093933 
	C765.184143,774.504456 774.792175,765.795654 784.350220,757.034912 
	C801.514282,741.302612 818.527954,725.405029 835.795715,709.788025 
	C839.515259,706.424072 839.027893,704.427551 835.695801,701.160889 
	C809.527466,675.507568 783.793518,649.405334 757.358154,624.032776 
	C744.949829,612.123352 745.301941,594.019653 754.796692,581.987488 
	C761.728943,573.202576 770.149963,566.402344 781.777771,564.508362 
	C789.878601,563.188843 797.168396,564.619751 802.953796,570.452454 
	C826.882568,594.576965 850.663513,618.848267 874.457458,643.106201 
	C880.282654,649.045105 885.908203,655.179260 891.700928,661.150452 
	C906.072937,675.965027 920.488464,690.737427 935.411682,706.066223 
	C932.532410,708.958008 929.769958,711.732361 926.755798,714.755005 
z"/>
<path fill="#0F1527" opacity="1.000000" stroke="none" 
	d="
M1519.881592,996.000000 
	C1519.881592,1036.312012 1519.885132,1076.123901 1519.879395,1115.935913 
	C1519.877441,1130.157471 1514.165771,1138.726074 1502.046265,1142.739746 
	C1489.172241,1147.003296 1473.745239,1143.089600 1466.452637,1133.660034 
	C1462.820312,1128.963257 1461.842163,1123.539551 1461.855103,1117.702881 
	C1461.933472,1082.555298 1461.893677,1047.407471 1461.893433,1012.259644 
	C1461.893311,979.443909 1462.623779,946.605957 1461.625122,913.820618 
	C1461.005371,893.471497 1478.669922,884.260559 1493.678589,885.661621 
	C1509.110107,887.102051 1520.470581,896.182922 1520.037842,915.046753 
	C1519.422852,941.851624 1519.881592,968.681030 1519.881592,996.000000 
z"/>
<path fill="#5FC89A" opacity="1.000000" stroke="none" 
	d="
M1514.268066,861.205750 
	C1505.833618,871.656250 1495.176636,875.631226 1482.545166,872.741272 
	C1470.498413,869.985107 1462.630859,862.145386 1459.784180,850.060364 
	C1456.892700,837.784912 1460.472534,827.137451 1470.268799,819.235840 
	C1480.018921,811.371521 1491.100830,809.814270 1502.568359,815.298767 
	C1513.729370,820.636597 1519.658569,829.668457 1520.113403,842.169983 
	C1520.364746,849.079407 1518.475342,855.305969 1514.268066,861.205750 
z"/>
<path fill="#FEFEFE" opacity="1.000000" stroke="none" 
	d="
M1340.360718,1080.373169 
	C1317.844727,1096.423706 1293.198608,1102.117920 1266.741211,1095.549072 
	C1246.605225,1090.549927 1233.307251,1076.353882 1226.180664,1057.322754 
	C1214.238159,1025.431274 1213.886108,993.546265 1232.029419,963.664795 
	C1246.656616,939.574524 1269.366943,929.916748 1297.117798,932.629761 
	C1321.459106,935.009583 1341.117920,946.028076 1354.799805,966.642944 
	C1356.506714,969.214844 1357.494141,972.763977 1357.521606,975.871826 
	C1357.738892,1000.369812 1357.225464,1024.881226 1357.846802,1049.365356 
	C1358.093750,1059.094116 1354.489624,1066.381226 1348.310303,1073.010498 
	C1345.934814,1075.559082 1343.203613,1077.776367 1340.360718,1080.373169 
z"/>
<path fill="#FFFFFF" opacity="1.000000" stroke="none" 
	d="
M574.527710,931.562256 
	C609.183594,932.625366 636.284302,956.399719 643.735352,993.556335 
	C648.612305,1017.876770 646.941406,1041.666382 634.093018,1063.608887 
	C621.647522,1084.863281 602.654846,1095.929199 578.305359,1098.108521 
	C558.931091,1099.842529 540.819336,1096.275391 524.988281,1084.454102 
	C508.838165,1072.394653 499.912628,1055.764893 496.574371,1036.206421 
	C492.186737,1010.499939 494.439484,985.648010 509.204712,963.299866 
	C521.910095,944.069397 539.966064,933.381165 563.154907,931.844177 
	C566.789612,931.603271 570.439819,931.596924 574.527710,931.562256 
z"/>
</svg>